<svg xmlns="http://www.w3.org/2000/svg" viewBox="0 0 1400 900" font-family="'Helvetica Neue', Helvetica, Arial, sans-serif">
  <defs>
    <marker id="arrow" viewBox="0 0 10 10" refX="9" refY="5" markerWidth="7" markerHeight="7" orient="auto">
      <path d="M 0 0 L 10 5 L 0 10 z" fill="#6B7280"/>
    </marker>
    <marker id="arrowAccel" viewBox="0 0 10 10" refX="9" refY="5" markerWidth="8" markerHeight="8" orient="auto">
      <path d="M 0 0 L 10 5 L 0 10 z" fill="#DC2626"/>
    </marker>
    <marker id="arrowDep" viewBox="0 0 10 10" refX="9" refY="5" markerWidth="5" markerHeight="5" orient="auto">
      <path d="M 0 0 L 10 5 L 0 10 z" fill="#CBD5E1"/>
    </marker>
  </defs>

  <!-- Background -->
  <rect width="1400" height="900" fill="#FAFAFA"/>

  <!-- Title -->
  <text x="700" y="38" text-anchor="middle" font-size="22" font-weight="700" fill="#111827">Wardley Map — Critical thinking infrastructure: the venture case</text>
  <text x="700" y="62" text-anchor="middle" font-size="13" fill="#6B7280">Anchor: grounded, inspectable answer inside the decision validity window · 2026-04-08</text>

  <!-- Plot area -->
  <rect x="150" y="100" width="1150" height="680" fill="#FFFFFF" stroke="#D1D5DB" stroke-width="1"/>

  <!-- Evolution band dividers -->
  <line x1="437.5" y1="100" x2="437.5" y2="780" stroke="#E5E7EB" stroke-width="1" stroke-dasharray="4,4"/>
  <line x1="725" y1="100" x2="725" y2="780" stroke="#E5E7EB" stroke-width="1" stroke-dasharray="4,4"/>
  <line x1="1012.5" y1="100" x2="1012.5" y2="780" stroke="#E5E7EB" stroke-width="1" stroke-dasharray="4,4"/>

  <!-- X-axis labels -->
  <text x="293.75" y="802" text-anchor="middle" font-size="13" font-weight="700" fill="#374151">Genesis</text>
  <text x="581.25" y="802" text-anchor="middle" font-size="13" font-weight="700" fill="#374151">Custom-Built</text>
  <text x="868.75" y="802" text-anchor="middle" font-size="13" font-weight="700" fill="#374151">Product (+ Rental)</text>
  <text x="1156.25" y="802" text-anchor="middle" font-size="13" font-weight="700" fill="#374151">Commodity (+ Utility)</text>
  <text x="725" y="828" text-anchor="middle" font-size="12" fill="#6B7280" font-style="italic">Evolution →</text>

  <!-- Y-axis labels -->
  <text x="140" y="118" text-anchor="end" font-size="11" fill="#6B7280">Visible</text>
  <text x="140" y="782" text-anchor="end" font-size="11" fill="#6B7280">Invisible</text>
  <text x="60" y="440" text-anchor="middle" font-size="13" font-weight="700" fill="#374151" transform="rotate(-90, 60, 440)">Value chain</text>

  <!-- DEPENDENCIES (drawn first so they sit under the nodes) -->
  <g stroke="#CBD5E1" stroke-width="1" fill="none">
    <!-- Anchor C1 → C2 -->
    <line x1="640" y1="108" x2="529.5" y2="172.8"/>
    <!-- C2 → C3, C16 -->
    <line x1="529.5" y1="172.8" x2="702" y2="186"/>
    <line x1="529.5" y1="172.8" x2="932" y2="681"/>
    <!-- C3 → C4 -->
    <line x1="702" y1="186" x2="414.5" y2="265.2"/>
    <!-- C4 → C5, C6, C7, C14 -->
    <line x1="414.5" y1="265.2" x2="322.5" y2="384"/>
    <line x1="414.5" y1="265.2" x2="759.5" y2="351"/>
    <line x1="414.5" y1="265.2" x2="610" y2="417"/>
    <line x1="414.5" y1="265.2" x2="1127.5" y2="648"/>
    <!-- C5 → C14, C7 -->
    <line x1="322.5" y1="384" x2="1127.5" y2="648"/>
    <line x1="322.5" y1="384" x2="610" y2="417"/>
    <!-- C6 → C7, C8, C9 -->
    <line x1="759.5" y1="351" x2="610" y2="417"/>
    <line x1="759.5" y1="351" x2="587" y2="516"/>
    <line x1="759.5" y1="351" x2="552.5" y2="549"/>
    <!-- C7 → C17 -->
    <line x1="610" y1="417" x2="644.5" y2="648"/>
    <!-- C8 → C7, C12, C16 -->
    <line x1="587" y1="516" x2="610" y2="417"/>
    <line x1="587" y1="516" x2="644.5" y2="582"/>
    <line x1="587" y1="516" x2="932" y2="681"/>
    <!-- C9 → C10, C11 -->
    <line x1="552.5" y1="549" x2="1047" y2="648"/>
    <line x1="552.5" y1="549" x2="817" y2="615"/>
    <!-- C10 → C18 -->
    <line x1="1047" y1="648" x2="1242.5" y2="747"/>
    <!-- C11 → C14, C12 -->
    <line x1="817" y1="615" x2="1127.5" y2="648"/>
    <line x1="817" y1="615" x2="644.5" y2="582"/>
    <!-- C12 → C13, C15, C16, C17 -->
    <line x1="644.5" y1="582" x2="1200" y2="695"/>
    <line x1="644.5" y1="582" x2="1162" y2="714"/>
    <line x1="644.5" y1="582" x2="932" y2="681"/>
    <line x1="644.5" y1="582" x2="644.5" y2="648"/>
    <!-- C14 → C18 -->
    <line x1="1127.5" y1="648" x2="1242.5" y2="747"/>
    <!-- C16 → C18 -->
    <line x1="932" y1="681" x2="1242.5" y2="747"/>
  </g>

  <!-- MOAT highlight ring around C12 -->
  <circle cx="644.5" cy="582" r="22" fill="#FEF3C7" stroke="#F59E0B" stroke-width="2" stroke-dasharray="4,3" opacity="0.9"/>

  <!-- NATURAL EVOLUTION arrows (rightward drift) -->
  <g>
    <line x1="537" y1="172.8" x2="595" y2="172.8" stroke="#6B7280" stroke-width="1.5" marker-end="url(#arrow)"/>
    <line x1="710" y1="186" x2="770" y2="186" stroke="#6B7280" stroke-width="1.5" marker-end="url(#arrow)"/>
    <line x1="422" y1="265.2" x2="488" y2="265.2" stroke="#6B7280" stroke-width="1.5" marker-end="url(#arrow)"/>
    <line x1="330" y1="384" x2="395" y2="384" stroke="#6B7280" stroke-width="1.5" marker-end="url(#arrow)"/>
    <line x1="767" y1="351" x2="825" y2="351" stroke="#6B7280" stroke-width="1.5" marker-end="url(#arrow)"/>
    <line x1="618" y1="417" x2="678" y2="417" stroke="#6B7280" stroke-width="1.5" marker-end="url(#arrow)"/>
    <line x1="658" y1="582" x2="720" y2="582" stroke="#6B7280" stroke-width="1.5" marker-end="url(#arrow)"/>
    <line x1="825" y1="615" x2="885" y2="615" stroke="#6B7280" stroke-width="1.5" marker-end="url(#arrow)"/>
    <line x1="1055" y1="648" x2="1110" y2="648" stroke="#6B7280" stroke-width="1.5" marker-end="url(#arrow)"/>
  </g>

  <!-- ACCELERATION indicator on C14 LLMs (forced, visible via red border + tag) -->
  <text x="1140" y="673" font-size="10" font-weight="700" fill="#DC2626" font-style="italic">≫ accelerating</text>

  <!-- INERTIA markers (×) -->
  <!-- ×1 Founder inertia near C4 -->
  <text x="380" y="252" font-size="20" font-weight="700" fill="#DC2626">×</text>
  <text x="366" y="240" font-size="9" fill="#DC2626" font-style="italic">founder inertia</text>
  <!-- ×2 Customer BI inertia — abstract, placed near C6 -->
  <text x="742" y="340" font-size="20" font-weight="700" fill="#DC2626">×</text>
  <text x="728" y="328" font-size="9" fill="#DC2626" font-style="italic">BI stack inertia</text>

  <!-- ANCHOR (C1) — star at top -->
  <g transform="translate(640, 108)">
    <polygon points="0,-14 4,-4 14,-4 6,3 9,14 0,7 -9,14 -6,3 -14,-4 -4,-4" fill="#991B1B" stroke="#450A0A" stroke-width="1.5"/>
  </g>
  <text x="660" y="100" font-size="12" font-weight="700" fill="#450A0A">C1 — Decision in validity window</text>
  <text x="660" y="114" font-size="10" fill="#7F1D1D" font-style="italic">user need / anchor</text>

  <!-- COMPONENT NODES -->

  <!-- C2 Inspectable trace (Build) -->
  <circle cx="529.5" cy="172.8" r="8" fill="#1E40AF" stroke="white" stroke-width="2"/>
  <text x="544" y="170" font-size="12" font-weight="600" fill="#111827">C2 Inspectable trace</text>
  <text x="544" y="184" font-size="10" fill="#1E40AF" font-style="italic">category-defining</text>

  <!-- C3 NL Q&A loop (Build) -->
  <circle cx="702" cy="186" r="8" fill="#1E40AF" stroke="white" stroke-width="2"/>
  <text x="782" y="184" font-size="12" font-weight="600" fill="#111827">C3 NL Q&amp;A loop</text>

  <!-- C4 AI facilitator (Genesis / research) -->
  <circle cx="414.5" cy="265.2" r="10" fill="#7B2CBF" stroke="white" stroke-width="2"/>
  <text x="428" y="262" font-size="12" font-weight="700" fill="#111827">C4 AI facilitator</text>
  <text x="428" y="278" font-size="10" fill="#7B2CBF" font-style="italic">THE research bet</text>

  <!-- C5 Social layer (Genesis) -->
  <circle cx="322.5" cy="384" r="9" fill="#7B2CBF" stroke="white" stroke-width="2"/>
  <text x="336" y="381" font-size="12" font-weight="600" fill="#111827">C5 Social layer / framing</text>
  <text x="336" y="395" font-size="10" fill="#7B2CBF" font-style="italic">long-dated research</text>

  <!-- C6 Micro-tools (Build) -->
  <circle cx="759.5" cy="351" r="8" fill="#1E40AF" stroke="white" stroke-width="2"/>
  <text x="837" y="348" font-size="12" font-weight="600" fill="#111827">C6 Micro-tools</text>

  <!-- C7 Ontology framework (Build + OSS) -->
  <circle cx="610" cy="417" r="8" fill="#1E40AF" stroke="#047857" stroke-width="2.5"/>
  <text x="688" y="414" font-size="12" font-weight="600" fill="#111827">C7 Ontology framework</text>
  <text x="688" y="428" font-size="10" fill="#047857" font-style="italic">open-source lever</text>

  <!-- C8 Domain graph overlay (Build per customer) -->
  <circle cx="587" cy="516" r="8" fill="#1E40AF" stroke="white" stroke-width="2"/>
  <text x="600" y="513" font-size="12" font-weight="600" fill="#111827">C8 Domain graph overlay</text>
  <text x="600" y="527" font-size="10" fill="#6B7280" font-style="italic">paid deployment</text>

  <!-- C9 Solver contracts (Build + open spec) -->
  <circle cx="552.5" cy="549" r="8" fill="#1E40AF" stroke="#047857" stroke-width="2.5"/>
  <text x="436" y="545" font-size="12" font-weight="600" fill="#111827" text-anchor="end">C9 Solver contracts</text>
  <text x="436" y="559" font-size="10" fill="#047857" font-style="italic" text-anchor="end">open spec</text>

  <!-- C10 Classical solvers (Buy) -->
  <circle cx="1047" cy="648" r="7" fill="#6B7280" stroke="white" stroke-width="2"/>
  <text x="1037" y="631" text-anchor="end" font-size="12" font-weight="600" fill="#111827">C10 Classical solvers</text>
  <text x="1037" y="645" text-anchor="end" font-size="10" fill="#6B7280" font-style="italic">Gurobi · OR-Tools</text>

  <!-- C11 Specialised ML (Hybrid) -->
  <circle cx="817" cy="615" r="7" fill="#0D9488" stroke="white" stroke-width="2"/>
  <text x="830" y="612" font-size="12" font-weight="600" fill="#111827">C11 Specialised ML</text>
  <text x="830" y="626" font-size="10" fill="#0D9488" font-style="italic">GNN · causal · ER</text>

  <!-- C12 Spatial KG — THE MOAT -->
  <circle cx="644.5" cy="582" r="12" fill="#F59E0B" stroke="#78350F" stroke-width="2.5"/>
  <text x="664" y="577" font-size="14" font-weight="700" fill="#78350F">C12 Spatial knowledge graph</text>
  <text x="664" y="593" font-size="12" font-weight="700" fill="#92400E">★ THE MOAT (amortisable substrate)</text>

  <!-- C13 H3 (Commodity) -->
  <circle cx="1200" cy="695" r="6" fill="#9CA3AF" stroke="white" stroke-width="2"/>
  <text x="1212" y="698" font-size="11" fill="#4B5563">C13 H3 indexing</text>

  <!-- C14 LLMs (Commodity, but accelerating) -->
  <circle cx="1127.5" cy="648" r="8" fill="#9CA3AF" stroke="#DC2626" stroke-width="2"/>
  <text x="1140" y="645" font-size="12" font-weight="600" fill="#111827">C14 LLMs</text>
  <text x="1140" y="659" font-size="10" fill="#DC2626" font-style="italic">concentration risk</text>

  <!-- C15 Geo data (Commodity) -->
  <circle cx="1162" cy="714" r="6" fill="#9CA3AF" stroke="white" stroke-width="2"/>
  <text x="1175" y="717" font-size="11" fill="#4B5563">C15 Geospatial data</text>

  <!-- C16 Graph store (Product) -->
  <circle cx="932" cy="681" r="6" fill="#6B7280" stroke="white" stroke-width="2"/>
  <text x="945" y="684" font-size="11" fill="#4B5563">C16 Graph store</text>

  <!-- C17 Rust engine (Build + OSS) -->
  <circle cx="644.5" cy="648" r="7" fill="#1E40AF" stroke="#047857" stroke-width="2.5"/>
  <text x="660" y="651" font-size="12" font-weight="600" fill="#111827">C17 Rust engine</text>
  <text x="660" y="665" font-size="10" fill="#047857" font-style="italic">open-source</text>

  <!-- C18 Cloud (Commodity) -->
  <circle cx="1242.5" cy="747" r="6" fill="#9CA3AF" stroke="white" stroke-width="2"/>
  <text x="1255" y="750" font-size="11" fill="#4B5563">C18 Cloud</text>

  <!-- LEGEND -->
  <g transform="translate(160, 610)">
    <rect x="0" y="0" width="235" height="160" fill="white" stroke="#D1D5DB" stroke-width="1" opacity="0.97" rx="4"/>
    <text x="12" y="20" font-size="12" font-weight="700" fill="#111827">Legend</text>

    <circle cx="22" cy="40" r="7" fill="#F59E0B" stroke="#78350F" stroke-width="2"/>
    <text x="36" y="44" font-size="11" fill="#374151">The moat — amortisable substrate</text>

    <circle cx="22" cy="60" r="7" fill="#7B2CBF"/>
    <text x="36" y="64" font-size="11" fill="#374151">Genesis — research bet</text>

    <circle cx="22" cy="80" r="7" fill="#1E40AF"/>
    <text x="36" y="84" font-size="11" fill="#374151">Build (custom)</text>

    <circle cx="22" cy="100" r="7" fill="#1E40AF" stroke="#047857" stroke-width="2"/>
    <text x="36" y="104" font-size="11" fill="#374151">Build + open-source (accelerator)</text>

    <circle cx="22" cy="120" r="7" fill="#6B7280"/>
    <text x="36" y="124" font-size="11" fill="#374151">Buy (product / vendor)</text>

    <circle cx="22" cy="140" r="7" fill="#9CA3AF"/>
    <text x="36" y="144" font-size="11" fill="#374151">Consume (commodity)</text>
  </g>

  <!-- STRATEGIC ANNOTATION BANDS under axis -->
  <rect x="150" y="845" width="287.5" height="32" fill="#F5F3FF" stroke="#7B2CBF" stroke-width="0.5" opacity="0.85"/>
  <text x="293.75" y="862" text-anchor="middle" font-size="10" font-weight="600" fill="#5B21B6">CATEGORY CLAIM</text>
  <text x="293.75" y="874" text-anchor="middle" font-size="9" fill="#6D28D9" font-style="italic">where research becomes differentiation</text>

  <rect x="437.5" y="845" width="287.5" height="32" fill="#EFF6FF" stroke="#1E40AF" stroke-width="0.5" opacity="0.85"/>
  <text x="581.25" y="862" text-anchor="middle" font-size="10" font-weight="600" fill="#1E3A8A">BUILD ZONE — THE MOAT</text>
  <text x="581.25" y="874" text-anchor="middle" font-size="9" fill="#1E40AF" font-style="italic">where the amortisation story lives</text>

  <rect x="725" y="845" width="287.5" height="32" fill="#F3F4F6" stroke="#6B7280" stroke-width="0.5" opacity="0.85"/>
  <text x="868.75" y="862" text-anchor="middle" font-size="10" font-weight="600" fill="#374151">BUY ZONE</text>
  <text x="868.75" y="874" text-anchor="middle" font-size="9" fill="#6B7280" font-style="italic">use vendor products where they exist</text>

  <rect x="1012.5" y="845" width="287.5" height="32" fill="#F9FAFB" stroke="#9CA3AF" stroke-width="0.5" opacity="0.85"/>
  <text x="1156.25" y="862" text-anchor="middle" font-size="10" font-weight="600" fill="#4B5563">TAILWIND ZONE</text>
  <text x="1156.25" y="874" text-anchor="middle" font-size="9" fill="#6B7280" font-style="italic">commoditisation makes moat viable</text>
</svg>
