<svg viewBox="0 0 700 400" xmlns="http://www.w3.org/2000/svg">
  <style>
    text { font-family: 'Fira Code', 'Courier New', monospace; }
    .title { font-size: 12px; fill: #222; font-weight: 600; }
    .sub { font-size: 9px; fill: #888; }
    .stat { font-size: 9px; fill: #333; }
    .district { font-size: 8px; fill: #444; letter-spacing: 1.2px; text-transform: uppercase; }
    .src { font-size: 8px; fill: #aaa; }
  </style>
  <defs>
    <pattern id="water" width="8" height="8" patternUnits="userSpaceOnUse">
      <path d="M0,4 Q2,2 4,4 Q6,6 8,4" fill="none" stroke="#bbdefb" stroke-width="0.5"/>
    </pattern>
  </defs>

  <text class="title" x="340" y="22" text-anchor="middle">Layer 1: Spatial Knowledge Graph</text>

  <!-- ===== WATER ===== -->
  <path d="M60,268 C130,258 220,272 310,256 C390,244 450,260 520,252 L520,320 L60,320 Z" fill="#e3f2fd"/>
  <path d="M60,268 C130,258 220,272 310,256 C390,244 450,260 520,252 L520,320 L60,320 Z" fill="url(#water)"/>
  <ellipse cx="185" cy="118" rx="26" ry="14" fill="#e3f2fd"/>
  <ellipse cx="185" cy="118" rx="26" ry="14" fill="url(#water)"/>
  <text class="src" x="300" y="296" text-anchor="middle" style="fill:#64b5f6;font-style:italic;">Singapore Strait</text>

  <!-- ===== FULL HEX GRID (flat-top, w=56, h=48) ===== -->
  <g fill="none" stroke="#66bb6a" stroke-width="0.6" opacity="0.35">
    <!-- Row 0 (y=58) -->
    <polygon points="88,58 116,42 144,58 144,90 116,106 88,90"/>
    <polygon points="144,58 172,42 200,58 200,90 172,106 144,90"/>
    <polygon points="200,58 228,42 256,58 256,90 228,106 200,90"/>
    <polygon points="256,58 284,42 312,58 312,90 284,106 256,90"/>
    <polygon points="312,58 340,42 368,58 368,90 340,106 312,90"/>
    <polygon points="368,58 396,42 424,58 424,90 396,106 368,90"/>
    <polygon points="424,58 452,42 480,58 480,90 452,106 424,90"/>
    <polygon points="480,58 508,42 536,58 536,90 508,106 480,90"/>
    <!-- Row 1 (offset, y=106) -->
    <polygon points="60,106 88,90 116,106 116,138 88,154 60,138"/>
    <polygon points="116,106 144,90 172,106 172,138 144,154 116,138"/>
    <polygon points="172,106 200,90 228,106 228,138 200,154 172,138"/>
    <polygon points="228,106 256,90 284,106 284,138 256,154 228,138"/>
    <polygon points="284,106 312,90 340,106 340,138 312,154 284,138"/>
    <polygon points="340,106 368,90 396,106 396,138 368,154 340,138"/>
    <polygon points="396,106 424,90 452,106 452,138 424,154 396,138"/>
    <polygon points="452,106 480,90 508,106 508,138 480,154 452,138"/>
    <!-- Row 2 (y=154) -->
    <polygon points="88,154 116,138 144,154 144,186 116,202 88,186"/>
    <polygon points="144,154 172,138 200,154 200,186 172,202 144,186"/>
    <polygon points="200,154 228,138 256,154 256,186 228,202 200,186"/>
    <polygon points="256,154 284,138 312,154 312,186 284,202 256,186"/>
    <polygon points="312,154 340,138 368,154 368,186 340,202 312,186"/>
    <polygon points="368,154 396,138 424,154 424,186 396,202 368,186"/>
    <polygon points="424,154 452,138 480,154 480,186 452,202 424,186"/>
    <polygon points="480,154 508,138 536,154 536,186 508,202 480,186"/>
    <!-- Row 3 (offset, y=202) -->
    <polygon points="60,202 88,186 116,202 116,234 88,250 60,234"/>
    <polygon points="116,202 144,186 172,202 172,234 144,250 116,234"/>
    <polygon points="172,202 200,186 228,202 228,234 200,250 172,234"/>
    <polygon points="228,202 256,186 284,202 284,234 256,250 228,234"/>
    <polygon points="284,202 312,186 340,202 340,234 312,250 284,234"/>
    <polygon points="340,202 368,186 396,202 396,234 368,250 340,234"/>
    <polygon points="396,202 424,186 452,202 452,234 424,250 396,234"/>
    <polygon points="452,202 480,186 508,202 508,234 480,250 452,234"/>
    <!-- Row 4 (y=250) -->
    <polygon points="88,250 116,234 144,250 144,282 116,298 88,282"/>
    <polygon points="144,250 172,234 200,250 200,282 172,298 144,282"/>
    <polygon points="200,250 228,234 256,250 256,282 228,298 200,282"/>
    <polygon points="256,250 284,234 312,250 312,282 284,298 256,282"/>
    <polygon points="312,250 340,234 368,250 368,282 340,298 312,282"/>
    <polygon points="368,250 396,234 424,250 424,282 396,298 368,282"/>
    <polygon points="424,250 452,234 480,250 480,282 452,298 424,282"/>
  </g>

  <!-- ===== GREEN SPACES ===== -->
  <path d="M104,96 C114,86 134,84 142,94 C150,104 140,116 128,118 C116,120 98,108 104,96 Z" fill="#c8e6c9" opacity="0.5"/>
  <path d="M362,106 C376,96 400,100 405,114 C408,126 396,136 382,134 C366,132 356,116 362,106 Z" fill="#c8e6c9" opacity="0.5"/>
  <path d="M432,198 C446,190 464,194 468,206 C470,216 458,222 446,220 C434,218 428,208 432,198 Z" fill="#c8e6c9" opacity="0.5"/>

  <!-- ===== ROADS (organic, no grid) ===== -->
  <g fill="none" stroke-linecap="round" stroke-linejoin="round">
    <!-- Expressways -->
    <path d="M56,160 C140,156 260,168 360,158 C420,152 480,162 524,158" stroke="#bbb" stroke-width="3"/>
    <path d="M270,38 C268,100 274,180 272,260" stroke="#bbb" stroke-width="3"/>
    <!-- Arterials -->
    <path d="M56,100 C140,96 260,108 360,100 C430,94 490,104 524,100" stroke="#ccc" stroke-width="1.5"/>
    <path d="M56,224 C160,218 280,230 380,222 C440,218 490,224 524,222" stroke="#ccc" stroke-width="1.5"/>
    <path d="M145,38 L143,260" stroke="#ccc" stroke-width="1.5"/>
    <path d="M408,38 C406,100 410,180 408,260" stroke="#ccc" stroke-width="1.5"/>
    <!-- Local roads (organic curves) -->
    <path d="M190,70 C210,72 240,68 270,74" stroke="#ddd" stroke-width="0.8"/>
    <path d="M310,90 C330,88 360,94 390,88" stroke="#ddd" stroke-width="0.8"/>
    <path d="M100,140 C120,144 150,138 180,142" stroke="#ddd" stroke-width="0.8"/>
    <path d="M310,140 C340,136 370,144 400,138" stroke="#ddd" stroke-width="0.8"/>
    <path d="M180,180 C210,176 240,184 270,178" stroke="#ddd" stroke-width="0.8"/>
    <path d="M340,190 C360,186 390,194 420,188" stroke="#ddd" stroke-width="0.8"/>
    <path d="M100,210 C130,206 170,214 200,210" stroke="#ddd" stroke-width="0.8"/>
    <path d="M440,120 C460,124 484,118 504,122" stroke="#ddd" stroke-width="0.8"/>
  </g>

  <!-- ===== BUILDINGS ===== -->
  <g fill="#999" stroke="#777" stroke-width="0.3" opacity="0.55">
    <!-- HDB cluster -->
    <rect x="152" y="146" width="6" height="18" rx="0.5" transform="rotate(5,155,155)"/>
    <rect x="164" y="144" width="6" height="20" rx="0.5"/>
    <rect x="176" y="148" width="6" height="16" rx="0.5" transform="rotate(-3,179,156)"/>
    <path d="M152,172 L152,182 L166,182 L166,176 L158,176 L158,172 Z"/>
    <rect x="170" y="174" width="12" height="8" rx="0.5"/>
    <!-- Commercial -->
    <rect x="288" y="78" width="16" height="14" rx="1"/>
    <rect x="308" y="76" width="20" height="18" rx="1"/>
    <rect x="290" y="96" width="12" height="12" rx="0.5"/>
    <path d="M306,96 L326,96 L326,112 L314,112 L314,104 L306,104 Z"/>
    <rect x="332" y="80" width="10" height="24" rx="0.5"/>
    <!-- Terraces -->
    <g transform="translate(96,190)">
      <rect x="0" y="0" width="6" height="5" rx="0.3"/>
      <rect x="7" y="0" width="6" height="5" rx="0.3"/>
      <rect x="14" y="0" width="6" height="5" rx="0.3"/>
      <rect x="21" y="0" width="6" height="5" rx="0.3"/>
      <rect x="28" y="0" width="6" height="5" rx="0.3"/>
    </g>
    <!-- Suburban -->
    <rect x="418" y="126" width="8" height="8" rx="0.5"/>
    <rect x="434" y="124" width="10" height="8" rx="0.5"/>
    <rect x="452" y="128" width="8" height="6" rx="0.5"/>
    <rect x="420" y="140" width="8" height="8" rx="0.5"/>
    <rect x="436" y="142" width="10" height="6" rx="0.5"/>
    <!-- Industrial -->
    <rect x="346" y="196" width="28" height="18" rx="1"/>
    <rect x="380" y="198" width="20" height="14" rx="1"/>
    <!-- Scattered -->
    <rect x="206" y="80" width="10" height="8" rx="0.5"/>
    <rect x="222" y="84" width="8" height="10" rx="0.5"/>
    <rect x="454" y="194" width="10" height="8" rx="0.5"/>
    <rect x="470" y="190" width="8" height="12" rx="0.5"/>
    <rect x="122" y="208" width="10" height="8" rx="0.5"/>
    <rect x="310" y="206" width="8" height="8" rx="0.5"/>
    <rect x="488" y="138" width="6" height="6" rx="0.3"/>
    <rect x="500" y="134" width="8" height="8" rx="0.3"/>
  </g>

  <!-- ===== POIs ===== -->
  <!-- MRT -->
  <circle cx="270" cy="160" r="5" fill="#d84315" opacity="0.9"/>
  <circle cx="270" cy="160" r="7.5" fill="none" stroke="#d84315" stroke-width="0.75" opacity="0.5"/>
  <circle cx="408" cy="160" r="5" fill="#d84315" opacity="0.9"/>
  <circle cx="408" cy="160" r="7.5" fill="none" stroke="#d84315" stroke-width="0.75" opacity="0.5"/>
  <circle cx="145" cy="160" r="5" fill="#d84315" opacity="0.9"/>
  <circle cx="145" cy="160" r="7.5" fill="none" stroke="#d84315" stroke-width="0.75" opacity="0.5"/>
  <!-- Schools -->
  <g opacity="0.8">
    <line x1="318" y1="146" x2="318" y2="136" stroke="#1565c0" stroke-width="0.8"/>
    <path d="M318,136 L328,139 L318,142 Z" fill="#1565c0"/>
  </g>
  <g opacity="0.8">
    <line x1="206" y1="202" x2="206" y2="192" stroke="#1565c0" stroke-width="0.8"/>
    <path d="M206,192 L216,195 L206,198 Z" fill="#1565c0"/>
  </g>
  <!-- Hawker -->
  <g stroke="#ef6c00" stroke-width="1.4" opacity="0.8">
    <line x1="238" y1="130" x2="238" y2="140"/>
    <line x1="233" y1="135" x2="243" y2="135"/>
  </g>
  <g stroke="#ef6c00" stroke-width="1.4" opacity="0.8">
    <line x1="468" y1="168" x2="468" y2="178"/>
    <line x1="463" y1="173" x2="473" y2="173"/>
  </g>

  <!-- ===== DISTRICT LABELS ===== -->
  <text class="district" x="170" y="66">Bukit Merah</text>
  <text class="district" x="310" y="66">Tanjong Pagar</text>
  <text class="district" x="440" y="66">Marine Parade</text>
  <text class="district" x="100" y="242">Queenstown</text>
  <text class="district" x="294" y="242">Kallang</text>

  <!-- ===== RIGHT SIDE ===== -->
  <g transform="translate(545, 56)">
    <text class="stat" x="0" y="0">~150,000 nodes</text>
    <text class="sub" x="0" y="14">entity-resolved across</text>
    <text class="sub" x="0" y="26">6 data sources</text>
    <line x1="0" y1="40" x2="130" y2="40" stroke="#eee" stroke-width="0.5"/>
    <text class="stat" x="0" y="56">H3 hex index</text>
    <text class="sub" x="0" y="70">res 12 · 307 m²/cell</text>
    <line x1="0" y1="84" x2="130" y2="84" stroke="#eee" stroke-width="0.5"/>
    <text class="stat" x="0" y="100">Full road network</text>
    <text class="sub" x="0" y="114">from OpenStreetMap</text>
    <line x1="0" y1="128" x2="130" y2="128" stroke="#eee" stroke-width="0.5"/>
    <text class="stat" x="0" y="144">Buildings, POIs,</text>
    <text class="stat" x="0" y="158">boundaries, transit</text>
  </g>

  <!-- ===== LEGEND ===== -->
  <g transform="translate(545, 232)">
    <rect x="-4" y="-10" width="140" height="108" rx="3" fill="#fafafa" stroke="#eee" stroke-width="0.5"/>
    <rect x="8" y="0" width="8" height="6" rx="0.5" fill="#999" stroke="#777" stroke-width="0.3"/>
    <text class="src" x="22" y="6">Building</text>
    <line x1="8" y1="18" x2="20" y2="18" stroke="#bbb" stroke-width="2.5"/>
    <text class="src" x="26" y="21">Road</text>
    <circle cx="14" cy="34" r="4" fill="#d84315" opacity="0.9"/>
    <text class="src" x="24" y="37">MRT station</text>
    <line x1="10" y1="52" x2="10" y2="44" stroke="#1565c0" stroke-width="0.6"/>
    <path d="M10,44 L17,46.5 L10,49 Z" fill="#1565c0" opacity="0.8"/>
    <text class="src" x="24" y="51">School</text>
    <line x1="10" y1="62" x2="10" y2="68" stroke="#ef6c00" stroke-width="1.2"/>
    <line x1="7" y1="65" x2="13" y2="65" stroke="#ef6c00" stroke-width="1.2"/>
    <text class="src" x="24" y="67">Hawker centre</text>
    <polygon points="8,80 16,80 16,88 8,88" fill="none" stroke="#66bb6a" stroke-width="0.6" opacity="0.5"/>
    <text class="src" x="24" y="87">H3 cell</text>
  </g>

  <!-- ===== BOTTOM ===== -->
  <text class="src" x="300" y="344" text-anchor="middle">OSM · Overture · data.gov.sg · OneMap · Foursquare · Wikidata · Google Open Buildings</text>
  <text class="sub" x="300" y="362" text-anchor="middle" style="fill:#d84315;">Built once per geography. Every project starts here.</text>
</svg>
