<svg viewBox="0 0 700 400" xmlns="http://www.w3.org/2000/svg">
  <style>
    text { font-family: 'Fira Code', 'Courier New', monospace; }
    .title { font-size: 12px; fill: #222; font-weight: 600; }
    .sub { font-size: 9px; fill: #888; }
    .stat { font-size: 9px; fill: #333; }
    .scenario { font-size: 8px; fill: #333; font-weight: 500; }
    .src { font-size: 8px; fill: #aaa; }
  </style>
  <defs>
    <pattern id="water2" width="8" height="8" patternUnits="userSpaceOnUse">
      <path d="M0,4 Q2,2 4,4 Q6,6 8,4" fill="none" stroke="#bbdefb" stroke-width="0.4"/>
    </pattern>
  </defs>

  <text class="title" x="340" y="22" text-anchor="middle">Layer 2: Domain Graph (per project)</text>

  <!-- ===== LAYER 1 FADED BACKGROUND ===== -->
  <g opacity="0.2">
    <!-- Water -->
    <path d="M60,268 C130,258 220,272 310,256 C390,244 450,260 520,252 L520,320 L60,320 Z" fill="#e3f2fd"/>
    <!-- Hex grid -->
    <g fill="none" stroke="#66bb6a" stroke-width="0.6">
      <polygon points="88,58 116,42 144,58 144,90 116,106 88,90"/>
      <polygon points="144,58 172,42 200,58 200,90 172,106 144,90"/>
      <polygon points="200,58 228,42 256,58 256,90 228,106 200,90"/>
      <polygon points="256,58 284,42 312,58 312,90 284,106 256,90"/>
      <polygon points="312,58 340,42 368,58 368,90 340,106 312,90"/>
      <polygon points="368,58 396,42 424,58 424,90 396,106 368,90"/>
      <polygon points="424,58 452,42 480,58 480,90 452,106 424,90"/>
      <polygon points="480,58 508,42 536,58 536,90 508,106 480,90"/>
      <polygon points="60,106 88,90 116,106 116,138 88,154 60,138"/>
      <polygon points="116,106 144,90 172,106 172,138 144,154 116,138"/>
      <polygon points="172,106 200,90 228,106 228,138 200,154 172,138"/>
      <polygon points="228,106 256,90 284,106 284,138 256,154 228,138"/>
      <polygon points="284,106 312,90 340,106 340,138 312,154 284,138"/>
      <polygon points="340,106 368,90 396,106 396,138 368,154 340,138"/>
      <polygon points="396,106 424,90 452,106 452,138 424,154 396,138"/>
      <polygon points="452,106 480,90 508,106 508,138 480,154 452,138"/>
      <polygon points="88,154 116,138 144,154 144,186 116,202 88,186"/>
      <polygon points="144,154 172,138 200,154 200,186 172,202 144,186"/>
      <polygon points="200,154 228,138 256,154 256,186 228,202 200,186"/>
      <polygon points="256,154 284,138 312,154 312,186 284,202 256,186"/>
      <polygon points="312,154 340,138 368,154 368,186 340,202 312,186"/>
      <polygon points="368,154 396,138 424,154 424,186 396,202 368,186"/>
      <polygon points="424,154 452,138 480,154 480,186 452,202 424,186"/>
      <polygon points="480,154 508,138 536,154 536,186 508,202 480,186"/>
      <polygon points="60,202 88,186 116,202 116,234 88,250 60,234"/>
      <polygon points="116,202 144,186 172,202 172,234 144,250 116,234"/>
      <polygon points="172,202 200,186 228,202 228,234 200,250 172,234"/>
      <polygon points="228,202 256,186 284,202 284,234 256,250 228,234"/>
      <polygon points="284,202 312,186 340,202 340,234 312,250 284,234"/>
      <polygon points="340,202 368,186 396,202 396,234 368,250 340,234"/>
      <polygon points="396,202 424,186 452,202 452,234 424,250 396,234"/>
      <polygon points="452,202 480,186 508,202 508,234 480,250 452,234"/>
      <polygon points="88,250 116,234 144,250 144,282 116,298 88,282"/>
      <polygon points="144,250 172,234 200,250 200,282 172,298 144,282"/>
      <polygon points="200,250 228,234 256,250 256,282 228,298 200,282"/>
      <polygon points="256,250 284,234 312,250 312,282 284,298 256,282"/>
      <polygon points="312,250 340,234 368,250 368,282 340,298 312,282"/>
      <polygon points="368,250 396,234 424,250 424,282 396,298 368,282"/>
      <polygon points="424,250 452,234 480,250 480,282 452,298 424,282"/>
    </g>
    <!-- Roads -->
    <g fill="none" stroke="#888" stroke-linecap="round">
      <path d="M56,160 C140,156 260,168 360,158 C420,152 480,162 524,158" stroke-width="3"/>
      <path d="M270,38 C268,100 274,180 272,260" stroke-width="3"/>
      <path d="M56,100 C140,96 260,108 360,100 C430,94 490,104 524,100" stroke-width="1.5"/>
      <path d="M56,224 C160,218 280,230 380,222 C440,218 490,224 524,222" stroke-width="1.5"/>
      <path d="M145,38 L143,260" stroke-width="1.5"/>
      <path d="M408,38 C406,100 410,180 408,260" stroke-width="1.5"/>
    </g>
  </g>

  <!-- ===== SCENARIO A: current operations (left half, blue tint) ===== -->
  <rect x="60" y="38" width="230" height="220" rx="4" fill="#e3f2fd" opacity="0.08"/>
  <text class="scenario" x="68" y="52" style="fill:#1565c0;">Scenario A: current network</text>

  <!-- Depot A -->
  <rect x="126" y="150" width="12" height="12" rx="1" fill="#1565c0" stroke="#0d47a1" stroke-width="0.75"/>
  <rect x="124" y="148" width="16" height="16" rx="2" fill="none" stroke="#1565c0" stroke-width="0.5" opacity="0.4"/>

  <!-- Demand points assigned to depot A (small dots, sized by volume) -->
  <circle cx="100" cy="90" r="3" fill="#64b5f6" opacity="0.7"/>
  <circle cx="150" cy="78" r="4.5" fill="#64b5f6" opacity="0.7"/>
  <circle cx="200" cy="95" r="2.5" fill="#64b5f6" opacity="0.7"/>
  <circle cx="110" cy="130" r="3.5" fill="#64b5f6" opacity="0.7"/>
  <circle cx="180" cy="120" r="5" fill="#64b5f6" opacity="0.7"/>
  <circle cx="220" cy="140" r="2" fill="#64b5f6" opacity="0.7"/>
  <circle cx="90" cy="180" r="4" fill="#64b5f6" opacity="0.7"/>
  <circle cx="160" cy="200" r="3" fill="#64b5f6" opacity="0.7"/>
  <circle cx="210" cy="190" r="3.5" fill="#64b5f6" opacity="0.7"/>
  <circle cx="120" cy="220" r="2.5" fill="#64b5f6" opacity="0.7"/>
  <circle cx="240" cy="110" r="3" fill="#64b5f6" opacity="0.7"/>
  <circle cx="170" cy="170" r="2" fill="#64b5f6" opacity="0.7"/>
  <circle cx="250" cy="200" r="4" fill="#64b5f6" opacity="0.7"/>
  <circle cx="80" cy="105" r="2.5" fill="#64b5f6" opacity="0.7"/>

  <!-- Assignment lines (thin, from demand to depot) -->
  <g stroke="#90caf9" stroke-width="0.4" opacity="0.4">
    <line x1="100" y1="90" x2="132" y2="156"/>
    <line x1="150" y1="78" x2="132" y2="156"/>
    <line x1="200" y1="95" x2="132" y2="156"/>
    <line x1="110" y1="130" x2="132" y2="156"/>
    <line x1="180" y1="120" x2="132" y2="156"/>
    <line x1="220" y1="140" x2="132" y2="156"/>
    <line x1="90" y1="180" x2="132" y2="156"/>
    <line x1="160" y1="200" x2="132" y2="156"/>
    <line x1="210" y1="190" x2="132" y2="156"/>
    <line x1="120" y1="220" x2="132" y2="156"/>
    <line x1="240" y1="110" x2="132" y2="156"/>
    <line x1="170" y1="170" x2="132" y2="156"/>
    <line x1="250" y1="200" x2="132" y2="156"/>
    <line x1="80" y1="105" x2="132" y2="156"/>
  </g>

  <!-- ===== SCENARIO B: expanded (right half, orange tint) ===== -->
  <rect x="290" y="38" width="230" height="220" rx="4" fill="#fff3e0" opacity="0.08"/>
  <text class="scenario" x="298" y="52" style="fill:#d84315;">Scenario B: + competitor's contracts</text>

  <!-- Depot A (same position, same icon) -->
  <rect x="356" y="150" width="12" height="12" rx="1" fill="#1565c0" stroke="#0d47a1" stroke-width="0.75"/>
  <rect x="354" y="148" width="16" height="16" rx="2" fill="none" stroke="#1565c0" stroke-width="0.5" opacity="0.4"/>

  <!-- Depot B (new, added in this scenario) -->
  <rect x="446" y="110" width="12" height="12" rx="1" fill="#d84315" stroke="#bf360c" stroke-width="0.75"/>
  <rect x="444" y="108" width="16" height="16" rx="2" fill="none" stroke="#d84315" stroke-width="0.5" opacity="0.4"/>

  <!-- Original demand points (blue) -->
  <circle cx="330" cy="90" r="3" fill="#64b5f6" opacity="0.7"/>
  <circle cx="380" cy="78" r="4.5" fill="#64b5f6" opacity="0.7"/>
  <circle cx="340" cy="130" r="3.5" fill="#64b5f6" opacity="0.7"/>
  <circle cx="410" cy="120" r="5" fill="#64b5f6" opacity="0.7"/>
  <circle cx="320" cy="180" r="4" fill="#64b5f6" opacity="0.7"/>
  <circle cx="390" cy="200" r="3" fill="#64b5f6" opacity="0.7"/>
  <circle cx="350" cy="220" r="2.5" fill="#64b5f6" opacity="0.7"/>
  <circle cx="430" cy="200" r="3.5" fill="#64b5f6" opacity="0.7"/>

  <!-- NEW demand points from competitor acquisition (orange) -->
  <circle cx="460" cy="80" r="3" fill="#ff8a65" opacity="0.8"/>
  <circle cx="490" cy="100" r="4" fill="#ff8a65" opacity="0.8"/>
  <circle cx="475" cy="140" r="3.5" fill="#ff8a65" opacity="0.8"/>
  <circle cx="500" cy="160" r="2.5" fill="#ff8a65" opacity="0.8"/>
  <circle cx="440" cy="170" r="3" fill="#ff8a65" opacity="0.8"/>
  <circle cx="510" cy="130" r="4.5" fill="#ff8a65" opacity="0.8"/>
  <circle cx="488" cy="195" r="3" fill="#ff8a65" opacity="0.8"/>

  <!-- Assignment lines to depot A (blue points) -->
  <g stroke="#90caf9" stroke-width="0.4" opacity="0.4">
    <line x1="330" y1="90" x2="362" y2="156"/>
    <line x1="380" y1="78" x2="362" y2="156"/>
    <line x1="340" y1="130" x2="362" y2="156"/>
    <line x1="410" y1="120" x2="362" y2="156"/>
    <line x1="320" y1="180" x2="362" y2="156"/>
    <line x1="390" y1="200" x2="362" y2="156"/>
    <line x1="350" y1="220" x2="362" y2="156"/>
    <line x1="430" y1="200" x2="362" y2="156"/>
  </g>

  <!-- Assignment lines to depot B (orange points) -->
  <g stroke="#ffab91" stroke-width="0.4" opacity="0.5">
    <line x1="460" y1="80" x2="452" y2="116"/>
    <line x1="490" y1="100" x2="452" y2="116"/>
    <line x1="475" y1="140" x2="452" y2="116"/>
    <line x1="500" y1="160" x2="452" y2="116"/>
    <line x1="440" y1="170" x2="452" y2="116"/>
    <line x1="510" y1="130" x2="452" y2="116"/>
    <line x1="488" y1="195" x2="452" y2="116"/>
  </g>

  <!-- ===== VS divider ===== -->
  <text class="sub" x="275" y="155" text-anchor="middle" style="fill:#bbb;font-size:10px;">vs</text>

  <!-- ===== RIGHT SIDE ANNOTATIONS ===== -->
  <g transform="translate(545, 56)">
    <text class="stat" x="0" y="0">Per-project overlay</text>
    <text class="sub" x="0" y="14">on the shared spatial</text>
    <text class="sub" x="0" y="26">foundation</text>
    <line x1="0" y1="40" x2="130" y2="40" stroke="#eee" stroke-width="0.5"/>
    <text class="stat" x="0" y="56">Demand points</text>
    <text class="sub" x="0" y="70">client locations with</text>
    <text class="sub" x="0" y="82">volume, frequency</text>
    <line x1="0" y1="96" x2="130" y2="96" stroke="#eee" stroke-width="0.5"/>
    <text class="stat" x="0" y="112">Facilities</text>
    <text class="sub" x="0" y="126">depots, warehouses,</text>
    <text class="sub" x="0" y="138">transfer stations</text>
    <line x1="0" y1="152" x2="130" y2="152" stroke="#eee" stroke-width="0.5"/>
    <text class="stat" x="0" y="168">Scenarios</text>
    <text class="sub" x="0" y="182">overlay subgraphs</text>
    <text class="sub" x="0" y="194">share base, store delta</text>
  </g>

  <!-- ===== LEGEND ===== -->
  <g transform="translate(545, 266)">
    <rect x="-4" y="-10" width="140" height="100" rx="3" fill="#fafafa" stroke="#eee" stroke-width="0.5"/>

    <rect x="8" y="2" width="8" height="8" rx="1" fill="#1565c0" stroke="#0d47a1" stroke-width="0.5"/>
    <text class="src" x="22" y="9">Depot (existing)</text>

    <rect x="8" y="20" width="8" height="8" rx="1" fill="#d84315" stroke="#bf360c" stroke-width="0.5"/>
    <text class="src" x="22" y="27">Depot (new)</text>

    <circle cx="12" cy="42" r="3.5" fill="#64b5f6" opacity="0.7"/>
    <text class="src" x="22" y="44">Demand (existing)</text>

    <circle cx="12" cy="58" r="3.5" fill="#ff8a65" opacity="0.8"/>
    <text class="src" x="22" y="60">Demand (acquired)</text>

    <line x1="6" y1="74" x2="18" y2="74" stroke="#90caf9" stroke-width="0.6"/>
    <text class="src" x="22" y="77">Assignment</text>
  </g>

  <!-- ===== BOTTOM ===== -->
  <text class="sub" x="300" y="344" text-anchor="middle">Same spatial foundation. Different operational question each time.</text>
  <text class="sub" x="300" y="362" text-anchor="middle" style="fill:#d84315;">Scenario B is an overlay: it shares the base graph and stores only the difference.</text>
</svg>
