<svg xmlns="http://www.w3.org/2000/svg" viewBox="0 0 720 560" font-family="'Fira Code', 'Courier New', monospace">

  <defs>
    <marker id="arr-o" viewBox="0 0 10 10" refX="8" refY="5" markerWidth="6" markerHeight="6" orient="auto-start-reverse">
      <path d="M2 1L8 5L2 9" fill="none" stroke="#d84315" stroke-width="1.5" stroke-linecap="round" stroke-linejoin="round"/>
    </marker>
  </defs>

  <!-- Title -->
  <text x="40" y="24" fill="#d84315" font-size="13" font-weight="500">landscape-altering decisions</text>

  <!-- ============================================ -->
  <!-- SHARED: Environment significantly changed    -->
  <!-- runs through BOTH panels                     -->
  <!-- ============================================ -->
  <line x1="300" y1="40" x2="300" y2="510" stroke="#d84315" stroke-width="1.5" stroke-dasharray="6 3"/>
  <text x="306" y="46" fill="#d84315" font-size="11" font-weight="500">environment significantly</text>
  <text x="306" y="58" fill="#d84315" font-size="11" font-weight="500">changed due to actor's action</text>

  <!-- ============================================ -->
  <!-- TOP PANEL: Quick actor                       -->
  <!-- ============================================ -->

  <text x="84" y="72" fill="#d84315" font-size="11" font-weight="500">quick actor</text>

  <!-- Axes -->
  <line x1="80" y1="220" x2="640" y2="220" stroke="#333" stroke-width="1"/>
  <line x1="80" y1="220" x2="80" y2="80" stroke="#333" stroke-width="1"/>

  <!-- Axis label -->
  <text x="40" y="150" fill="#333" font-size="11" text-anchor="middle" transform="rotate(-90, 40, 150)">value of quick decisions</text>

  <!-- Minimum usefulness threshold -->
  <line x1="80" y1="120" x2="640" y2="120" stroke="#333" stroke-width="1" stroke-dasharray="6 4"/>
  <text x="440" y="114" fill="#333" font-size="11">minimum usefulness</text>

  <!-- Quick S-curve: rises fast, flattens BELOW threshold -->
  <path d="M80 220 Q100 215 120 200 Q150 170 190 162 Q230 157 270 155" fill="none" stroke="#d84315" stroke-width="1.5"/>

  <!-- Annotated point: quick actor acts -->
  <circle cx="270" cy="155" r="4" fill="#d84315"/>
  <text x="148" y="150" fill="#d84315" font-size="11" font-weight="500">quick actor acts here</text>

  <!-- Annotation: deliberately below threshold -->
  <text x="360" y="165" fill="#d84315" font-size="11">never crosses minimum</text>
  <text x="360" y="176" fill="#d84315" font-size="11">usefulness. doesn't need to.</text>
  <text x="360" y="187" fill="#d84315" font-size="11" font-weight="500">the goal is to move first.</text>

  <!-- Line continuing beyond action point showing propagation -->
  <path d="M270 155 L300 154" fill="none" stroke="#333" stroke-width="1.5"/>
  <text x="296" y="168" fill="#333" font-size="11" text-anchor="end">action propagates</text>

  <!-- ============================================ -->
  <!-- Divider                                      -->
  <!-- ============================================ -->
  <line x1="40" y1="240" x2="700" y2="240" stroke="#333" stroke-width="0.5" stroke-dasharray="2 4"/>

  <!-- ============================================ -->
  <!-- BOTTOM PANEL: Slow actor                     -->
  <!-- ============================================ -->

  <text x="84" y="268" fill="#333" font-size="11" font-weight="500">slow actor</text>

  <!-- Axes -->
  <line x1="80" y1="460" x2="640" y2="460" stroke="#333" stroke-width="1"/>
  <line x1="80" y1="460" x2="80" y2="280" stroke="#333" stroke-width="1"/>

  <!-- Axis label -->
  <text x="40" y="370" fill="#333" font-size="11" text-anchor="middle" transform="rotate(-90, 40, 370)">value of analysis</text>

  <!-- Minimum usefulness threshold -->
  <line x1="80" y1="340" x2="640" y2="340" stroke="#333" stroke-width="1" stroke-dasharray="6 4"/>
  <text x="440" y="334" fill="#333" font-size="11">minimum usefulness</text>

  <!-- S-curve: analysis value building up from zero -->
  <path d="M80 460 Q140 455 180 430 Q220 400 300 380" fill="none" stroke="#333" stroke-width="1.5"/>

  <!-- After turning point: value crashes to zero -->
  <path d="M300 380 Q320 420 340 450 Q350 458 360 460" fill="none" stroke="#d84315" stroke-width="1.5"/>

  <!-- Counterfactual: dashed continuation if environment stayed stable -->
  <path d="M300 380 Q360 340 420 320 Q480 305 540 300 Q600 298 640 297" fill="none" stroke="#333" stroke-width="1.5" stroke-dasharray="5 4"/>

  <!-- Annotation: counterfactual -->
  <circle cx="540" cy="300" r="2" fill="#333"/>
  <line x1="542" y1="302" x2="555" y2="318" stroke="#333" stroke-width="1"/>
  <text x="560" y="316" fill="#333" font-size="11">value if environment</text>
  <text x="560" y="327" fill="#333" font-size="11">had stayed stable</text>

  <!-- Annotation: never crosses threshold -->
  <text x="155" y="360" fill="#d84315" font-size="11">analysis never reaches</text>
  <text x="155" y="371" fill="#d84315" font-size="11" font-weight="500">minimum usefulness</text>
  <text x="155" y="382" fill="#d84315" font-size="11">before disruption</text>

  <!-- Decision validity window bracket -->
  <line x1="80" y1="490" x2="270" y2="490" stroke="#d84315" stroke-width="1.5"/>
  <line x1="80" y1="486" x2="80" y2="494" stroke="#d84315" stroke-width="1"/>
  <line x1="270" y1="486" x2="270" y2="494" stroke="#d84315" stroke-width="1"/>
  <text x="175" y="506" fill="#d84315" font-size="11" text-anchor="middle" font-weight="500">decision validity window</text>

  <!-- Action lead time gap -->
  <line x1="272" y1="490" x2="298" y2="490" stroke="#333" stroke-width="1"/>
  <line x1="272" y1="486" x2="272" y2="494" stroke="#333" stroke-width="1"/>
  <line x1="298" y1="486" x2="298" y2="494" stroke="#333" stroke-width="1"/>
  <text x="305" y="506" fill="#333" font-size="11">action lead time</text>

  <!-- Bottom summary -->
  <text x="40" y="536" fill="#333" font-size="11">the quick actor's decision doesn't need to be good. it needs to be first.</text>
  <text x="40" y="552" fill="#333" font-size="11">moving first changes the landscape, rendering the slow actor's superior analysis obsolete.</text>

</svg>
