<svg xmlns="http://www.w3.org/2000/svg" viewBox="0 0 720 380" font-family="'Fira Code', 'Courier New', monospace">
  <defs>
    <marker id="arr" viewBox="0 0 10 10" refX="8" refY="5" markerWidth="5" markerHeight="5" orient="auto-start-reverse">
      <path d="M2 1L8 5L2 9" fill="none" stroke="#333" stroke-width="1.5" stroke-linecap="round" stroke-linejoin="round"/>
    </marker>
    <marker id="arr-o" viewBox="0 0 10 10" refX="8" refY="5" markerWidth="5" markerHeight="5" orient="auto-start-reverse">
      <path d="M2 1L8 5L2 9" fill="none" stroke="#d84315" stroke-width="1.5" stroke-linecap="round" stroke-linejoin="round"/>
    </marker>
  </defs>

  <!-- Title -->
  <text x="40" y="24" fill="#d84315" font-size="13" font-weight="500">the compounding inquiry cycle</text>

  <!-- ============================================ -->
  <!-- SLOW CYCLE                                   -->
  <!-- ============================================ -->

  <text x="40" y="56" fill="#333" font-size="11" font-weight="500">slow cycle</text>

  <!-- Row 1: Q1 → A1 -->
  <rect x="40" y="68" width="280" height="26" rx="3" fill="none" stroke="#333" stroke-width="1"/>
  <text x="180" y="85" fill="#222" font-size="11" text-anchor="middle">Question 1</text>
  <line x1="320" y1="81" x2="338" y2="81" stroke="#333" stroke-width="0.5" marker-end="url(#arr)"/>
  <rect x="340" y="68" width="280" height="26" rx="3" fill="none" stroke="#333" stroke-width="1"/>
  <text x="480" y="85" fill="#222" font-size="11" text-anchor="middle">Answer 1</text>

  <!-- Time annotation -->
  <text x="640" y="85" fill="#333" font-size="11">2 weeks</text>

  <!-- Return arrow -->
  <path d="M480 94 L480 106 L180 106 L180 114" fill="none" stroke="#d84315" stroke-width="1" marker-end="url(#arr-o)"/>
  <text x="340" y="103" fill="#d84315" font-size="11" text-anchor="middle">better question</text>

  <!-- Row 2: Q2 → A2 -->
  <rect x="40" y="116" width="280" height="26" rx="3" fill="none" stroke="#333" stroke-width="1"/>
  <text x="180" y="133" fill="#222" font-size="11" text-anchor="middle">Question 2</text>
  <line x1="320" y1="129" x2="338" y2="129" stroke="#333" stroke-width="0.5" marker-end="url(#arr)"/>
  <rect x="340" y="116" width="280" height="26" rx="3" fill="none" stroke="#333" stroke-width="1"/>
  <text x="480" y="133" fill="#222" font-size="11" text-anchor="middle">Answer 2</text>

  <!-- Time annotation -->
  <text x="640" y="133" fill="#333" font-size="11">2 weeks</text>

  <!-- Slow decide -->
  <line x1="480" y1="142" x2="480" y2="158" stroke="#333" stroke-width="1"/>
  <rect x="390" y="160" width="190" height="26" rx="3" fill="none" stroke="#d84315" stroke-width="1"/>
  <text x="485" y="177" fill="#d84315" font-size="11" text-anchor="middle" font-weight="500">decide: 4 weeks, 2 cycles</text>

  <!-- ============================================ -->
  <!-- Divider                                      -->
  <!-- ============================================ -->
  <line x1="40" y1="206" x2="700" y2="206" stroke="#333" stroke-width="0.5" stroke-dasharray="2 4"/>

  <!-- ============================================ -->
  <!-- FAST CYCLE                                   -->
  <!-- ============================================ -->

  <text x="40" y="232" fill="#d84315" font-size="11" font-weight="500">fast cycle</text>

  <!-- All iterations on one line -->
  <rect x="40" y="244" width="60" height="22" rx="3" fill="none" stroke="#333" stroke-width="1"/>
  <text x="70" y="259" fill="#222" font-size="11" text-anchor="middle">Q₁</text>
  <line x1="100" y1="255" x2="108" y2="255" stroke="#333" stroke-width="0.5" marker-end="url(#arr)"/>

  <rect x="110" y="244" width="50" height="22" rx="3" fill="none" stroke="#333" stroke-width="1"/>
  <text x="135" y="259" fill="#222" font-size="11" text-anchor="middle">A₁</text>
  <line x1="160" y1="255" x2="168" y2="255" stroke="#333" stroke-width="0.5" marker-end="url(#arr)"/>

  <rect x="170" y="244" width="60" height="22" rx="3" fill="none" stroke="#333" stroke-width="1"/>
  <text x="200" y="259" fill="#222" font-size="11" text-anchor="middle">Q₂</text>
  <line x1="230" y1="255" x2="238" y2="255" stroke="#333" stroke-width="0.5" marker-end="url(#arr)"/>

  <rect x="240" y="244" width="50" height="22" rx="3" fill="none" stroke="#333" stroke-width="1"/>
  <text x="265" y="259" fill="#222" font-size="11" text-anchor="middle">A₂</text>
  <line x1="290" y1="255" x2="298" y2="255" stroke="#333" stroke-width="0.5" marker-end="url(#arr)"/>

  <rect x="300" y="244" width="60" height="22" rx="3" fill="none" stroke="#333" stroke-width="1"/>
  <text x="330" y="259" fill="#222" font-size="11" text-anchor="middle">Q₃</text>
  <line x1="360" y1="255" x2="368" y2="255" stroke="#333" stroke-width="0.5" marker-end="url(#arr)"/>

  <rect x="370" y="244" width="50" height="22" rx="3" fill="none" stroke="#333" stroke-width="1"/>
  <text x="395" y="259" fill="#222" font-size="11" text-anchor="middle">A₃</text>
  <line x1="420" y1="255" x2="428" y2="255" stroke="#333" stroke-width="0.5" marker-end="url(#arr)"/>

  <rect x="430" y="244" width="60" height="22" rx="3" fill="none" stroke="#333" stroke-width="1"/>
  <text x="460" y="259" fill="#222" font-size="11" text-anchor="middle">Q₄</text>
  <line x1="490" y1="255" x2="498" y2="255" stroke="#333" stroke-width="0.5" marker-end="url(#arr)"/>

  <rect x="500" y="244" width="50" height="22" rx="3" fill="none" stroke="#333" stroke-width="1"/>
  <text x="525" y="259" fill="#222" font-size="11" text-anchor="middle">A₄</text>
  <line x1="550" y1="255" x2="558" y2="255" stroke="#333" stroke-width="0.5" marker-end="url(#arr)"/>

  <rect x="560" y="244" width="60" height="22" rx="3" fill="none" stroke="#333" stroke-width="1"/>
  <text x="590" y="259" fill="#222" font-size="11" text-anchor="middle">Q₅</text>
  <line x1="620" y1="255" x2="628" y2="255" stroke="#333" stroke-width="0.5" marker-end="url(#arr)"/>

  <rect x="630" y="244" width="50" height="22" rx="3" fill="none" stroke="#333" stroke-width="1"/>
  <text x="655" y="259" fill="#222" font-size="11" text-anchor="middle">A₅</text>

  <!-- Fast decide -->
  <line x1="655" y1="266" x2="655" y2="282" stroke="#333" stroke-width="1"/>
  <rect x="520" y="284" width="200" height="26" rx="3" fill="none" stroke="#d84315" stroke-width="1"/>
  <text x="620" y="301" fill="#d84315" font-size="11" text-anchor="middle" font-weight="500">decide: 20 minutes, 5 cycles</text>

  <!-- ============================================ -->
  <!-- Bottom summary                               -->
  <!-- ============================================ -->

  <text x="40" y="344" fill="#333" font-size="11">Q₅ only exists because A₄ revealed something unexpected.</text>
  <text x="40" y="360" fill="#333" font-size="11">the value compounds through the iteration rate, not the quality of any single answer.</text>
  <text x="40" y="376" fill="#333" font-size="11">same decision deadline. radically different outcomes.</text>

</svg>
